<?xml version="1.0" standalone="no"?>
<!DOCTYPE svg PUBLIC "-//W3C//DTD SVG 20010904//EN"
 "http://www.w3.org/TR/2001/REC-SVG-20010904/DTD/svg10.dtd">
<svg version="1.0" xmlns="http://www.w3.org/2000/svg"
 width="90" height="83" viewBox="0 0 300.000000 313.000000"
 preserveAspectRatio="xMidYMid meet">
<metadata>
Created by potrace 1.10, written by Peter Selinger 2001-2011
</metadata>
<g transform="translate(0.000000,313.000000) scale(0.100000,-0.100000)"
fill="rgb(72, 105, 189)" stroke="none">
<path d="M1355 2993 c-11 -2 -58 -11 -105 -20 -411 -77 -772 -358 -954 -744
-142 -300 -164 -664 -60 -978 112 -336 354 -615 673 -776 98 -49 256 -100 370
-119 121 -20 321 -20 442 0 557 93 1004 541 1094 1094 20 124 20 318 0 394
-53 204 -237 387 -442 440 -381 98 -704 -125 -661 -457 10 -73 37 -126 88
-169 134 -115 347 -53 395 115 20 69 14 133 -18 190 -35 62 -47 39 -18 -36 17
-43 13 -127 -8 -173 -41 -90 -147 -137 -250 -109 -133 35 -194 187 -142 354
39 124 145 219 286 256 75 19 221 19 304 0 190 -45 359 -198 423 -383 20 -59
23 -84 22 -222 -1 -215 -37 -368 -130 -554 -133 -267 -338 -469 -603 -596
-164 -79 -313 -116 -508 -127 -153 -8 -270 7 -421 53 -443 136 -776 481 -887
919 -36 139 -39 174 -38 340 0 170 23 289 88 457 127 329 433 629 754 739 80
28 78 18 -10 -49 -87 -66 -229 -218 -291 -312 -142 -216 -208 -421 -208 -647
0 -174 31 -298 113 -458 120 -232 324 -395 575 -457 123 -31 330 -31 455 0
171 42 310 124 431 253 87 92 144 187 183 304 22 68 26 98 27 200 1 118 1 121
-33 183 -35 65 -90 122 -117 122 -10 0 -1 -16 27 -47 23 -27 54 -73 68 -103
45 -94 34 -259 -26 -404 -73 -175 -212 -321 -390 -410 -234 -117 -538 -121
-772 -10 -307 144 -511 476 -511 829 0 430 310 884 736 1081 41 19 74 37 74
39 0 3 -1 4 -2 4 -2 -1 -12 -3 -23 -6z"/>
<path d="M1675 2931 c-70 -9 -156 -35 -205 -64 -102 -59 -183 -177 -198 -287
-28 -204 77 -350 252 -350 150 0 267 159 227 308 -17 61 -30 52 -24 -18 8 -87
-12 -145 -64 -197 -52 -50 -98 -67 -169 -61 -143 12 -230 169 -189 344 45 193
263 324 502 300 71 -7 203 -40 242 -59 233 -119 368 -231 514 -429 41 -56 42
-56 -68 -12 -139 54 -329 69 -484 37 l-84 -18 -26 35 c-44 59 -129 140 -147
140 -11 0 6 -23 47 -68 50 -53 97 -120 105 -149 0 -2 25 7 55 19 77 30 295 37
406 13 98 -21 224 -81 286 -135 26 -23 47 -38 47 -33 0 19 -140 228 -195 290
-245 279 -557 426 -830 394z"/>
<path d="M706 2021 c-5 -8 -11 -69 -14 -136 -6 -156 12 -244 78 -380 94 -196
271 -341 485 -399 33 -9 107 -19 165 -23 233 -13 429 65 592 236 66 68 130
163 154 225 6 17 2 15 -29 -8 -102 -78 -293 -71 -400 15 -39 31 -40 32 -66 15
-91 -60 -204 -90 -336 -89 -184 0 -318 56 -446 184 -93 92 -156 208 -167 311
-5 43 -10 59 -16 49z m74 -273 c79 -124 217 -231 358 -275 44 -14 90 -18 202
-18 152 0 203 11 313 67 l38 19 43 -25 c77 -45 129 -57 237 -55 55 1 102 -1
106 -4 15 -15 -65 -109 -157 -186 -289 -241 -750 -207 -1010 75 -63 68 -115
156 -150 252 -31 85 -52 222 -34 222 5 0 29 -32 54 -72z"/>
</g>
</svg>
